<?xml version="1.0" encoding="UTF-8"?>
<svg version="1.1" xmlns="http://www.w3.org/2000/svg" width="432" height="432">
<path d="M0 0 C142.56 0 285.12 0 432 0 C432 142.56 432 285.12 432 432 C289.44 432 146.88 432 0 432 C0 289.44 0 146.88 0 0 Z " fill="#0758FD" transform="translate(0,0)"/>
<path d="M0 0 C0.75141236 -0.00709439 1.50282473 -0.01418877 2.27700716 -0.02149814 C4.79079024 -0.03907759 7.30302692 -0.02097494 9.81678772 -0.00291443 C11.62058211 -0.00805334 13.42437149 -0.01533441 15.22814941 -0.02459717 C20.12498308 -0.04312432 25.02127282 -0.03016375 29.91808391 -0.01050687 C35.04289943 0.00587258 40.16768031 -0.0029324 45.29251099 -0.00802612 C53.8999755 -0.01254827 62.5072228 0.0033293 71.11463928 0.03126526 C81.06391775 0.06330749 91.0128042 0.06330573 100.96211046 0.04605049 C110.53402044 0.03018162 120.1057868 0.03692196 129.67769051 0.0539875 C133.75054818 0.06085752 137.82329072 0.059826 141.89614677 0.05244255 C146.6938403 0.04477645 151.49108826 0.05691656 156.28870583 0.08429146 C158.0487015 0.09117333 159.80873881 0.09127536 161.56873322 0.08407593 C163.97315717 0.07537441 166.37620828 0.09134769 168.78051758 0.11352539 C169.47556442 0.10528462 170.17061126 0.09704386 170.88672012 0.08855337 C175.83950814 0.17275808 178.62112868 1.56218837 182.45375061 4.62818909 C186.05661751 8.71792989 187.5759601 11.01192691 187.5941925 16.42195129 C187.59990265 17.4341423 187.60561279 18.44633331 187.61149597 19.48919678 C187.61317276 21.16143059 187.61317276 21.16143059 187.61488342 22.8674469 C187.61984833 24.03828323 187.62481323 25.20911957 187.62992859 26.41543579 C187.64205039 29.63256566 187.64949918 32.84965915 187.65393925 36.06680775 C187.65686979 38.07731978 187.66097463 40.0878261 187.66544342 42.09833527 C187.67912203 48.39024207 187.68878608 54.68213584 187.69264531 60.97405648 C187.69712276 68.23396353 187.71465439 75.49368199 187.74364591 82.75353169 C187.76528075 88.36636211 187.7753506 93.97913955 187.77668643 99.59201121 C187.77773347 102.94349206 187.78361898 106.29479571 187.80150604 109.6462326 C187.81854666 113.38808491 187.81669065 117.12947786 187.81019592 120.87135315 C187.81941071 121.97807877 187.82862549 123.08480438 187.83811951 124.22506714 C187.80361973 130.56525917 187.42248093 135.37340924 182.95375061 140.27272034 C178.21768731 143.9604363 175.24049897 144.75274234 169.32489014 144.77536011 C167.40066223 144.78609306 167.40066223 144.78609306 165.43756104 144.79704285 C164.0128634 144.79988307 162.58816551 144.80259481 161.16346741 144.80519104 C159.66538841 144.81145644 158.16731097 144.81810331 156.66923523 144.82510376 C151.7471576 144.84613545 146.82507968 144.85650452 141.90296936 144.86647034 C140.2082804 144.87051806 138.5135916 144.87463499 136.81890297 144.87882042 C128.85791851 144.89786923 120.89694331 144.91210155 112.93594044 144.92043239 C103.74656955 144.93020753 94.55743935 144.95653548 85.36815327 144.99693328 C78.264871 145.02708912 71.16165776 145.04190071 64.05831271 145.0452134 C59.81590363 145.04756429 55.57375178 145.05652974 51.33141136 145.08167458 C47.33979457 145.10495149 43.34860447 145.10919026 39.35693741 145.09891319 C37.89362608 145.09841764 36.43029378 145.10474388 34.96704674 145.11846924 C32.96596341 145.13618629 30.96469483 145.12669732 28.96356201 145.11593628 C27.28529091 145.11951881 27.28529091 145.11951881 25.57311535 145.12317371 C20.71412659 144.35214341 16.52835143 141.47144011 13.45375061 137.62818909 C11.1201152 133.14679717 11.22371357 128.87236706 11.32533264 123.94508362 C11.34446082 122.15407897 11.36351027 120.36307347 11.38249207 118.57206726 C11.39614933 117.62599735 11.40980659 116.67992744 11.42387772 115.70518875 C11.48843678 110.66148512 11.49295385 105.61755126 11.50843811 100.57350159 C11.53193457 94.16975244 11.57252141 87.76751596 11.67640686 81.36451721 C11.75898998 76.17741737 11.78180187 70.99291528 11.76658249 65.80521774 C11.7715095 63.84135118 11.79764384 61.87740564 11.84657669 59.91414261 C12.15678087 46.93738094 10.46651041 39.17740294 1.38175964 29.60717773 C0.875396 29.09662024 0.36903236 28.58606274 -0.15267563 28.0600338 C-1.97239438 26.19034111 -3.55446181 24.17423396 -5.12437439 22.09303284 C-5.58199158 21.49168518 -6.03960876 20.89033752 -6.51109314 20.27076721 C-6.9351947 19.70809143 -7.35929626 19.14541565 -7.79624939 18.56568909 C-8.2667572 17.96820862 -8.73726501 17.37072815 -9.22203064 16.75514221 C-11.26707194 14.02742677 -12.49916746 11.8693331 -13.15562439 8.50709534 C-11.65770414 1.43038237 -6.50838958 -0.1104747 0 0 Z " fill="#F4F5F5" transform="translate(129.54624938964844,156.37181091308594)"/>
<path d="M0 0 C0.98756287 -0.0087616 1.97512573 -0.01752319 2.99261475 -0.02655029 C6.25333742 -0.04853646 9.51270131 -0.03399354 12.7734375 -0.01708984 C15.04118103 -0.02045818 17.3089228 -0.02531094 19.57666016 -0.03158569 C24.32797443 -0.038956 29.07881852 -0.02824584 33.83007812 -0.00488281 C39.92023137 0.02360437 46.00928293 0.00720135 52.09939575 -0.02274513 C56.78174133 -0.04081342 61.46382575 -0.03506208 66.1461792 -0.02210617 C68.39166392 -0.0187709 70.63717237 -0.02286346 72.88262939 -0.03450394 C76.02135008 -0.04720428 79.15828717 -0.02784536 82.296875 0 C83.22481873 -0.01012115 84.15276245 -0.02024231 85.10882568 -0.03067017 C89.60974352 0.04330073 91.5512147 0.19214807 95.23291016 2.9960022 C97.1484375 5.64697266 97.1484375 5.64697266 97.6484375 8.70947266 C97.10098942 11.92573013 96.4408684 13.35454176 94.1484375 15.64697266 C91.41119588 16.55938653 89.79772073 16.77604035 86.98023987 16.78741455 C85.7079805 16.79597977 85.7079805 16.79597977 84.41001892 16.80471802 C83.48266434 16.80583588 82.55530975 16.80695374 81.59985352 16.80810547 C80.62072998 16.81307037 79.64160645 16.81803528 78.6328125 16.82315063 C75.38931581 16.83777277 72.145868 16.84457366 68.90234375 16.85009766 C66.65176898 16.85584819 64.40119424 16.86160593 62.15061951 16.86737061 C57.43040742 16.87788014 52.71021237 16.88372341 47.98999023 16.88720703 C41.93583553 16.89269768 35.88190506 16.91673823 29.82782078 16.94517899 C25.17904497 16.96378167 20.53032349 16.96900966 15.8815136 16.97054291 C13.64914662 16.97357432 11.4167807 16.9816192 9.18445015 16.99472809 C6.06493048 17.01174205 2.94596298 17.00991983 -0.17358398 17.00341797 C-1.09891434 17.01263275 -2.02424469 17.02184753 -2.97761536 17.03134155 C-9.22702011 16.99044357 -9.22702011 16.99044357 -12.40736389 15.24139404 C-14.0938248 13.37951069 -14.57161608 12.25109177 -14.9140625 9.77197266 C-15.02878906 9.11455078 -15.14351562 8.45712891 -15.26171875 7.77978516 C-13.7288438 -0.19116457 -6.47772453 -0.07065305 0 0 Z " fill="#C7C7C7" transform="translate(187.8515625,220.35302734375)"/>
<path d="M0 0 C0.98756287 -0.0087616 1.97512573 -0.01752319 2.99261475 -0.02655029 C6.25333742 -0.04853646 9.51270131 -0.03399354 12.7734375 -0.01708984 C15.04118103 -0.02045818 17.3089228 -0.02531094 19.57666016 -0.03158569 C24.32797443 -0.038956 29.07881852 -0.02824584 33.83007812 -0.00488281 C39.92023137 0.02360437 46.00928293 0.00720135 52.09939575 -0.02274513 C56.78174133 -0.04081342 61.46382575 -0.03506208 66.1461792 -0.02210617 C68.39166392 -0.0187709 70.63717237 -0.02286346 72.88262939 -0.03450394 C76.02135008 -0.04720428 79.15828717 -0.02784536 82.296875 0 C83.22481873 -0.01012115 84.15276245 -0.02024231 85.10882568 -0.03067017 C89.60974352 0.04330073 91.5512147 0.19214807 95.23291016 2.9960022 C97.1484375 5.64697266 97.1484375 5.64697266 97.6484375 8.70947266 C97.10098942 11.92573013 96.4408684 13.35454176 94.1484375 15.64697266 C91.41119588 16.55938653 89.79772073 16.77604035 86.98023987 16.78741455 C85.7079805 16.79597977 85.7079805 16.79597977 84.41001892 16.80471802 C83.48266434 16.80583588 82.55530975 16.80695374 81.59985352 16.80810547 C80.62072998 16.81307037 79.64160645 16.81803528 78.6328125 16.82315063 C75.38931581 16.83777277 72.145868 16.84457366 68.90234375 16.85009766 C66.65176898 16.85584819 64.40119424 16.86160593 62.15061951 16.86737061 C57.43040742 16.87788014 52.71021237 16.88372341 47.98999023 16.88720703 C41.93583553 16.89269768 35.88190506 16.91673823 29.82782078 16.94517899 C25.17904497 16.96378167 20.53032349 16.96900966 15.8815136 16.97054291 C13.64914662 16.97357432 11.4167807 16.9816192 9.18445015 16.99472809 C6.06493048 17.01174205 2.94596298 17.00991983 -0.17358398 17.00341797 C-1.09891434 17.01263275 -2.02424469 17.02184753 -2.97761536 17.03134155 C-9.22702011 16.99044357 -9.22702011 16.99044357 -12.40736389 15.24139404 C-14.0938248 13.37951069 -14.57161608 12.25109177 -14.9140625 9.77197266 C-15.02878906 9.11455078 -15.14351562 8.45712891 -15.26171875 7.77978516 C-13.7288438 -0.19116457 -6.47772453 -0.07065305 0 0 Z " fill="#C7C7C7" transform="translate(187.8515625,188.35302734375)"/>
<path d="M0 0 C1.37093536 -0.00337114 2.7418678 -0.00822625 4.11279297 -0.01449585 C6.98108474 -0.02185344 9.84859609 -0.0111996 12.71679688 0.01220703 C16.38583493 0.04069651 20.05304436 0.02428622 23.72201538 -0.00565529 C26.55149002 -0.02375983 29.38053406 -0.01795631 32.21002197 -0.00501633 C34.21798903 -0.00007872 36.2259731 -0.01521214 38.23388672 -0.03067017 C48.35466584 0.09956779 48.35466584 0.09956779 51.4609375 3.01416016 C53.49645675 6.25558122 53.76526276 7.90251876 53.125 11.6640625 C51.34515595 14.7999782 50.60191793 15.50508986 47.125 16.6640625 C45.16810775 16.76778578 43.20788994 16.81263099 41.24829102 16.82519531 C40.04016251 16.83480286 38.832034 16.8444104 37.58729553 16.85430908 C36.28102707 16.85855896 34.97475861 16.86280884 33.62890625 16.8671875 C32.27514138 16.8729412 30.92137653 16.8786989 29.56761169 16.88446045 C26.7305361 16.89495896 23.89348876 16.90080943 21.05639648 16.90429688 C17.42354255 16.90978549 13.79106268 16.93382567 10.15832615 16.96226883 C7.36247163 16.98090261 4.56670719 16.98610114 1.77079582 16.98763275 C-0.21896323 16.99212623 -2.20867403 17.01076653 -4.198349 17.02960205 C-6.01527 17.0251004 -6.01527 17.0251004 -7.86889648 17.02050781 C-8.93462387 17.02415344 -10.00035126 17.02779907 -11.09837341 17.03155518 C-14.24438181 16.615174 -15.59789132 15.83332267 -17.875 13.6640625 C-18.66015625 11.796875 -18.66015625 11.796875 -18.9375 9.7890625 C-19.05222656 9.13164062 -19.16695312 8.47421875 -19.28515625 7.796875 C-18.77999732 5.17004857 -17.75743627 3.58877946 -15.82835388 1.74661255 C-11.16303578 -0.83890991 -5.1799901 -0.03987843 0 0 Z " fill="#C7C7C7" transform="translate(191.875,252.3359375)"/>
<path d="M0 0 C1.02757354 1.05721508 2.03149501 2.13842041 3 3.25 C3.66 3.91 4.32 4.57 5 5.25 C4.77811847 6.87907753 4.52257741 8.50363436 4.25 10.125 C4.17044387 14.48353967 4.69099044 15.89902048 7.6171875 19.22265625 C10.6118692 21.86658591 13.77751347 24.2873468 16.96728516 26.68994141 C20.35698287 29.29145094 23.57650194 32.08649762 26.8125 34.875 C27.41658691 35.38409912 28.02067383 35.89319824 28.64306641 36.41772461 C32.8840374 40.01807481 32.8840374 40.01807481 34 42.25 C32.19392927 46.86551408 30.13613954 49.52620079 26 52.25 C24.67663201 52.62092593 23.34381911 52.96183497 22 53.25 C16.55224905 47.41530599 11.17295335 41.56363759 6.125 35.375 C5.3928125 34.48425781 4.660625 33.59351563 3.90625 32.67578125 C2 30.25 2 30.25 0.71875 28.23046875 C-0.44527815 26.29467219 -0.44527815 26.29467219 -3 24.25 C-5.53040619 24.13277935 -5.53040619 24.13277935 -8.3125 24.375 C-12.97900848 24.62227423 -15.24539777 24.01536425 -18.8125 20.9375 C-21.22545471 18.21130168 -21.99006997 16.93878292 -22.04296875 13.26953125 C-21.54516433 10.50116565 -20.90059029 7.91261478 -20 5.25 C-15.51928716 6.09743917 -13.36165653 8.27034989 -10 11.25 C-9.34 10.26 -8.68 9.27 -8 8.25 C-8.433125 7.85167969 -8.86625 7.45335937 -9.3125 7.04296875 C-10.1478125 6.24826172 -10.1478125 6.24826172 -11 5.4375 C-11.8353125 4.65439453 -11.8353125 4.65439453 -12.6875 3.85546875 C-14 2.25 -14 2.25 -14 -0.75 C-4.48705747 -3.92736109 -4.48705747 -3.92736109 0 0 Z " fill="#0557FE" transform="translate(279,243.75)"/>
<path d="M0 0 C0.53625 0.7425 1.0725 1.485 1.625 2.25 C4.93225555 6.07945379 8.02241795 8.68179828 13.1109848 9.50057125 C14.22593575 9.50078053 15.34088669 9.50098982 16.48962402 9.50120544 C17.77656662 9.51103958 19.06350922 9.52087372 20.38945007 9.53100586 C21.80325585 9.52163518 23.21705896 9.51185593 24.63085938 9.50170898 C26.12938443 9.50549467 27.62790598 9.51099677 29.12641907 9.51808167 C33.18640389 9.53202117 37.2459642 9.52087729 41.30592537 9.50437045 C45.55921876 9.49049903 49.81248804 9.49698241 54.0657959 9.50050354 C61.20783309 9.50320401 68.34970206 9.48974413 75.49169922 9.46655273 C83.7430982 9.43994398 91.99421596 9.43819649 100.24564314 9.4499411 C108.19063882 9.46072885 116.135533 9.45452399 124.08052063 9.44038582 C127.45838324 9.43463466 130.83617136 9.43470184 134.21403503 9.43945122 C138.19337627 9.44423159 142.17241048 9.43407568 146.15169334 9.41249657 C147.61014457 9.40694292 149.06862539 9.40645034 150.52707863 9.41144943 C152.52151786 9.41742724 154.51598685 9.40302937 156.51037598 9.38768005 C157.62532692 9.38525016 158.74027786 9.38282026 159.8890152 9.38031673 C165.07613616 8.74619313 168.99231932 6.23697286 173 3 C172.13178355 6.47286581 171.15113805 7.87928457 168.32969666 10.13279724 C162.47867281 13.27970087 155.75395684 12.61393494 149.28735352 12.62524414 C147.79191196 12.64218136 146.29648844 12.66078014 144.80108643 12.6809082 C140.75358103 12.73001705 136.706293 12.75407483 132.65854383 12.77216268 C129.27384976 12.78954828 125.88930718 12.81916914 122.50470108 12.84873861 C114.51742979 12.91829938 106.53021188 12.96749648 98.54272461 13.00366211 C90.31434077 13.04124483 82.08670548 13.11163917 73.85870606 13.19847971 C66.7825708 13.27208581 59.70647331 13.32600526 52.63005775 13.36409086 C48.408796 13.38695942 44.18790961 13.41701192 39.96685982 13.46571541 C35.99652733 13.5106065 32.02680717 13.53078079 28.05622864 13.53231049 C26.60338932 13.53690101 25.15054674 13.55000666 23.69787407 13.57248497 C15.56185805 13.69266975 9.26372897 13.61551464 3 8 C0.05338551 4.96130381 0 4.42502729 0 0 Z " fill="#164DB7" transform="translate(142,291)"/>
<path d="M0 0 C0 3 0 3 -1.75 5.0625 C-4.89309941 7.76905782 -6.81836271 9 -11 9 C-11 8.34 -11 7.68 -11 7 C-10.18595703 6.61908203 -10.18595703 6.61908203 -9.35546875 6.23046875 C-8.64003906 5.88628906 -7.92460937 5.54210937 -7.1875 5.1875 C-6.47980469 4.85105469 -5.77210938 4.51460938 -5.04296875 4.16796875 C-2.98870965 2.99354529 -1.58383722 1.74371984 0 0 Z " fill="#1853C6" transform="translate(314,294)"/>
</svg>
